<svg xmlns="http://www.w3.org/2000/svg" version="1.1" xmlns:xlink="http://www.w3.org/1999/xlink" xmlns:svgjs="http://svgjs.dev/svgjs" width="2000" height="1000" preserveAspectRatio="none" viewBox="0 0 2000 1000"><g mask="url(&quot;#SvgjsMask1209&quot;)" fill="none"><rect width="2000" height="1000" x="0" y="0" fill="rgba(255, 255, 255, 1)"></rect><g mask="url(&quot;#SvgjsMask1211&quot;)"><path d="M-25 525L25 525" stroke="url(&quot;#SvgjsLinearGradient1210&quot;)" stroke-width="8.33"></path><path d="M12.5 525 a12.5 12.5 0 1 0 25 0 a12.5 12.5 0 1 0 -25 0z" fill="url(&quot;#SvgjsLinearGradient1210&quot;)"></path><path d="M1375 575L1425 625L1475 675L1525 675L1575 675L1625 675L1675 625L1725 625M1275 525L1325 575L1375 625L1425 675M725 525L775 575L825 575L875 575M1175 525L1225 575L1275 575L1325 625L1375 675M1325 525L1375 525L1425 525L1475 525L1525 525L1575 575L1625 575L1675 575L1725 575M1075 525L1125 575L1175 625L1225 625L1275 625L1325 675M575 525L625 475L675 475L725 475M-25 475L25 475L75 475L125 475L175 475L225 475L275 475L325 475L375 525L425 525L475 525L525 525L575 525L625 525L675 525L725 525L775 525L825 525L875 525L925 525L975 525L1025 525L1075 525L1125 525L1175 525L1225 525L1275 525L1325 525L1375 575L1425 575" stroke="url(&quot;#SvgjsLinearGradient1210&quot;)" stroke-width="8.33"></path><path d="M1412.5 575 a12.5 12.5 0 1 0 25 0 a12.5 12.5 0 1 0 -25 0zM1712.5 625 a12.5 12.5 0 1 0 25 0 a12.5 12.5 0 1 0 -25 0zM1412.5 675 a12.5 12.5 0 1 0 25 0 a12.5 12.5 0 1 0 -25 0zM862.5 575 a12.5 12.5 0 1 0 25 0 a12.5 12.5 0 1 0 -25 0zM1362.5 675 a12.5 12.5 0 1 0 25 0 a12.5 12.5 0 1 0 -25 0zM1712.5 575 a12.5 12.5 0 1 0 25 0 a12.5 12.5 0 1 0 -25 0zM1312.5 675 a12.5 12.5 0 1 0 25 0 a12.5 12.5 0 1 0 -25 0zM712.5 475 a12.5 12.5 0 1 0 25 0 a12.5 12.5 0 1 0 -25 0z" fill="url(&quot;#SvgjsLinearGradient1210&quot;)"></path><path d="M25 575L75 575L125 575L175 575L225 575M275 525L325 575L375 625L425 625L475 625M-25 575L25 575L75 525L125 525L175 525L225 525L275 525L325 525L375 575L425 575" stroke="url(&quot;#SvgjsLinearGradient1210&quot;)" stroke-width="8.33"></path><path d="M412.5 575 a12.5 12.5 0 1 0 25 0 a12.5 12.5 0 1 0 -25 0zM212.5 575 a12.5 12.5 0 1 0 25 0 a12.5 12.5 0 1 0 -25 0zM462.5 625 a12.5 12.5 0 1 0 25 0 a12.5 12.5 0 1 0 -25 0z" fill="url(&quot;#SvgjsLinearGradient1210&quot;)"></path><path d="M1075 475L1125 425L1175 425L1225 425L1275 425M775 425L825 475M225 425L275 375L325 375L375 375M825 425L875 425L925 425L975 425L1025 425L1075 425M475 425L525 475M425 425L475 375L525 375L575 375L625 375L675 375L725 375L775 375M175 425L225 375M1525 475L1575 425L1625 425L1675 425L1725 425L1775 425L1825 425L1875 425L1925 425M-25 425L25 425L75 425L125 425L175 425L225 425L275 425L325 425L375 425L425 425L475 425L525 425L575 425L625 425L675 425L725 425L775 425L825 425L875 475L925 475L975 475L1025 475L1075 475L1125 475L1175 475L1225 475L1275 475L1325 475L1375 475L1425 475L1475 475L1525 475L1575 475" stroke="url(&quot;#SvgjsLinearGradient1210&quot;)" stroke-width="8.33"></path><path d="M1562.5 475 a12.5 12.5 0 1 0 25 0 a12.5 12.5 0 1 0 -25 0zM1262.5 425 a12.5 12.5 0 1 0 25 0 a12.5 12.5 0 1 0 -25 0zM812.5 475 a12.5 12.5 0 1 0 25 0 a12.5 12.5 0 1 0 -25 0zM362.5 375 a12.5 12.5 0 1 0 25 0 a12.5 12.5 0 1 0 -25 0zM1062.5 425 a12.5 12.5 0 1 0 25 0 a12.5 12.5 0 1 0 -25 0zM512.5 475 a12.5 12.5 0 1 0 25 0 a12.5 12.5 0 1 0 -25 0zM762.5 375 a12.5 12.5 0 1 0 25 0 a12.5 12.5 0 1 0 -25 0zM212.5 375 a12.5 12.5 0 1 0 25 0 a12.5 12.5 0 1 0 -25 0zM1912.5 425 a12.5 12.5 0 1 0 25 0 a12.5 12.5 0 1 0 -25 0z" fill="url(&quot;#SvgjsLinearGradient1210&quot;)"></path><path d="M675 725L725 675L775 675M1175 725L1225 675L1275 675M775 725L825 725L875 725L925 725M325 725L375 675L425 675L475 675L525 675L575 675L625 675L675 675L725 625L775 625L825 625M475 775L525 725L575 725M1375 775L1425 825L1475 825L1525 875L1575 875M625 775L675 775L725 775M-25 625L25 625L75 625L125 625L175 625L225 625L275 675L325 725L375 725L425 725L475 775L525 775L575 775L625 775L675 725L725 725L775 725L825 775L875 775L925 775L975 725L1025 725L1075 725L1125 725L1175 725L1225 725L1275 725L1325 725L1375 775L1425 775" stroke="url(&quot;#SvgjsLinearGradient1210&quot;)" stroke-width="8.33"></path><path d="M1412.5 775 a12.5 12.5 0 1 0 25 0 a12.5 12.5 0 1 0 -25 0zM762.5 675 a12.5 12.5 0 1 0 25 0 a12.5 12.5 0 1 0 -25 0zM1262.5 675 a12.5 12.5 0 1 0 25 0 a12.5 12.5 0 1 0 -25 0zM912.5 725 a12.5 12.5 0 1 0 25 0 a12.5 12.5 0 1 0 -25 0zM812.5 625 a12.5 12.5 0 1 0 25 0 a12.5 12.5 0 1 0 -25 0zM562.5 725 a12.5 12.5 0 1 0 25 0 a12.5 12.5 0 1 0 -25 0zM1562.5 875 a12.5 12.5 0 1 0 25 0 a12.5 12.5 0 1 0 -25 0zM712.5 775 a12.5 12.5 0 1 0 25 0 a12.5 12.5 0 1 0 -25 0z" fill="url(&quot;#SvgjsLinearGradient1210&quot;)"></path><path d="M475 325L525 275L575 275L625 275L675 275M275 325L325 275L375 275L425 275M1325 375L1375 425M825 325L875 275L925 275L975 275M1025 325L1075 375M125 325L175 375M725 325L775 275L825 275M-25 375L25 375L75 375L125 325L175 325L225 325L275 325L325 325L375 325L425 325L475 325L525 325L575 325L625 325L675 325L725 325L775 325L825 325L875 325L925 325L975 325L1025 325L1075 325L1125 375L1175 375L1225 375L1275 375L1325 375L1375 375L1425 425L1475 425" stroke="url(&quot;#SvgjsLinearGradient1210&quot;)" stroke-width="8.33"></path><path d="M1462.5 425 a12.5 12.5 0 1 0 25 0 a12.5 12.5 0 1 0 -25 0zM662.5 275 a12.5 12.5 0 1 0 25 0 a12.5 12.5 0 1 0 -25 0zM412.5 275 a12.5 12.5 0 1 0 25 0 a12.5 12.5 0 1 0 -25 0zM1362.5 425 a12.5 12.5 0 1 0 25 0 a12.5 12.5 0 1 0 -25 0zM962.5 275 a12.5 12.5 0 1 0 25 0 a12.5 12.5 0 1 0 -25 0zM1062.5 375 a12.5 12.5 0 1 0 25 0 a12.5 12.5 0 1 0 -25 0zM162.5 375 a12.5 12.5 0 1 0 25 0 a12.5 12.5 0 1 0 -25 0zM812.5 275 a12.5 12.5 0 1 0 25 0 a12.5 12.5 0 1 0 -25 0z" fill="url(&quot;#SvgjsLinearGradient1210&quot;)"></path><path d="M825 825L875 875L925 925L975 925M975 875L1025 825M1025 875L1075 925L1125 925L1175 925L1225 925L1275 925L1325 925M925 875L975 825L1025 775L1075 775M-25 675L25 675L75 675L125 675L175 675L225 675L275 725L325 775L375 775L425 775L475 825L525 825L575 825L625 825L675 825L725 825L775 825L825 825L875 825L925 875L975 875L1025 875L1075 875" stroke="url(&quot;#SvgjsLinearGradient1210&quot;)" stroke-width="8.33"></path><path d="M1062.5 875 a12.5 12.5 0 1 0 25 0 a12.5 12.5 0 1 0 -25 0zM962.5 925 a12.5 12.5 0 1 0 25 0 a12.5 12.5 0 1 0 -25 0zM1012.5 825 a12.5 12.5 0 1 0 25 0 a12.5 12.5 0 1 0 -25 0zM1312.5 925 a12.5 12.5 0 1 0 25 0 a12.5 12.5 0 1 0 -25 0zM1062.5 775 a12.5 12.5 0 1 0 25 0 a12.5 12.5 0 1 0 -25 0z" fill="url(&quot;#SvgjsLinearGradient1210&quot;)"></path><path d="M-25 325L25 325L75 325L125 275L175 275" stroke="url(&quot;#SvgjsLinearGradient1210&quot;)" stroke-width="8.33"></path><path d="M162.5 275 a12.5 12.5 0 1 0 25 0 a12.5 12.5 0 1 0 -25 0z" fill="url(&quot;#SvgjsLinearGradient1210&quot;)"></path><path d="M175 725L225 775L275 825L325 875L375 875M525 875L575 925L625 925L675 925L725 925M125 725L175 775L225 825L275 875L325 925M75 725L125 775L175 825L225 875L275 925M-25 725L25 725L75 725L125 725L175 725L225 725L275 775L325 825L375 825L425 825L475 875L525 875L575 875L625 875L675 875L725 875L775 875L825 925" stroke="url(&quot;#SvgjsLinearGradient1210&quot;)" stroke-width="8.33"></path><path d="M812.5 925 a12.5 12.5 0 1 0 25 0 a12.5 12.5 0 1 0 -25 0zM362.5 875 a12.5 12.5 0 1 0 25 0 a12.5 12.5 0 1 0 -25 0zM712.5 925 a12.5 12.5 0 1 0 25 0 a12.5 12.5 0 1 0 -25 0zM312.5 925 a12.5 12.5 0 1 0 25 0 a12.5 12.5 0 1 0 -25 0zM262.5 925 a12.5 12.5 0 1 0 25 0 a12.5 12.5 0 1 0 -25 0z" fill="url(&quot;#SvgjsLinearGradient1210&quot;)"></path><path d="M1075 225L1125 275L1175 275L1225 275L1275 275M525 225L575 175L625 175L675 175L725 175L775 175L825 175L875 175L925 125L975 125L1025 125L1075 125L1125 125L1175 125M1475 225L1525 275L1575 325L1625 325L1675 325L1725 325L1775 375M25 275L75 225L125 175L175 175L225 175L275 175L325 175L375 175M975 225L1025 175L1075 175L1125 175L1175 175M425 225L475 175L525 175L575 125L625 125L675 125L725 125L775 125M1375 175L1425 175L1475 175M1025 225L1075 275M1425 225L1475 275L1525 325L1575 375L1625 375M-25 275L25 275L75 275L125 225L175 225L225 225L275 225L325 225L375 225L425 225L475 225L525 225L575 225L625 225L675 225L725 225L775 225L825 225L875 225L925 225L975 225L1025 225L1075 225L1125 225L1175 225L1225 175L1275 175L1325 175L1375 175L1425 225L1475 225L1525 225L1575 275L1625 275L1675 275L1725 275L1775 325" stroke="url(&quot;#SvgjsLinearGradient1210&quot;)" stroke-width="8.33"></path><path d="M1762.5 325 a12.5 12.5 0 1 0 25 0 a12.5 12.5 0 1 0 -25 0zM1262.5 275 a12.5 12.5 0 1 0 25 0 a12.5 12.5 0 1 0 -25 0zM1162.5 125 a12.5 12.5 0 1 0 25 0 a12.5 12.5 0 1 0 -25 0zM1762.5 375 a12.5 12.5 0 1 0 25 0 a12.5 12.5 0 1 0 -25 0zM362.5 175 a12.5 12.5 0 1 0 25 0 a12.5 12.5 0 1 0 -25 0zM1162.5 175 a12.5 12.5 0 1 0 25 0 a12.5 12.5 0 1 0 -25 0zM762.5 125 a12.5 12.5 0 1 0 25 0 a12.5 12.5 0 1 0 -25 0zM1462.5 175 a12.5 12.5 0 1 0 25 0 a12.5 12.5 0 1 0 -25 0zM1062.5 275 a12.5 12.5 0 1 0 25 0 a12.5 12.5 0 1 0 -25 0zM1612.5 375 a12.5 12.5 0 1 0 25 0 a12.5 12.5 0 1 0 -25 0z" fill="url(&quot;#SvgjsLinearGradient1210&quot;)"></path></g></g><defs><mask id="SvgjsMask1209"><rect width="2000" height="1000" fill="#ffffff"></rect></mask><linearGradient x1="0" y1="500" x2="2000" y2="500" gradientUnits="userSpaceOnUse" id="SvgjsLinearGradient1210"><stop stop-color="#3a7cc3" offset="0"></stop><stop stop-color="#dd1133" offset="1"></stop></linearGradient><mask id="SvgjsMask1211"><rect width="2000" height="1000" fill="white"></rect><path d="M18.75 525 a6.25 6.25 0 1 0 12.5 0 a6.25 6.25 0 1 0 -12.5 0z" fill="black"></path><path d="M1418.75 575 a6.25 6.25 0 1 0 12.5 0 a6.25 6.25 0 1 0 -12.5 0zM1718.75 625 a6.25 6.25 0 1 0 12.5 0 a6.25 6.25 0 1 0 -12.5 0zM1418.75 675 a6.25 6.25 0 1 0 12.5 0 a6.25 6.25 0 1 0 -12.5 0zM868.75 575 a6.25 6.25 0 1 0 12.5 0 a6.25 6.25 0 1 0 -12.5 0zM1368.75 675 a6.25 6.25 0 1 0 12.5 0 a6.25 6.25 0 1 0 -12.5 0zM1718.75 575 a6.25 6.25 0 1 0 12.5 0 a6.25 6.25 0 1 0 -12.5 0zM1318.75 675 a6.25 6.25 0 1 0 12.5 0 a6.25 6.25 0 1 0 -12.5 0zM718.75 475 a6.25 6.25 0 1 0 12.5 0 a6.25 6.25 0 1 0 -12.5 0z" fill="black"></path><path d="M418.75 575 a6.25 6.25 0 1 0 12.5 0 a6.25 6.25 0 1 0 -12.5 0zM218.75 575 a6.25 6.25 0 1 0 12.5 0 a6.25 6.25 0 1 0 -12.5 0zM468.75 625 a6.25 6.25 0 1 0 12.5 0 a6.25 6.25 0 1 0 -12.5 0z" fill="black"></path><path d="M1568.75 475 a6.25 6.25 0 1 0 12.5 0 a6.25 6.25 0 1 0 -12.5 0zM1268.75 425 a6.25 6.25 0 1 0 12.5 0 a6.25 6.25 0 1 0 -12.5 0zM818.75 475 a6.25 6.25 0 1 0 12.5 0 a6.25 6.25 0 1 0 -12.5 0zM368.75 375 a6.25 6.25 0 1 0 12.5 0 a6.25 6.25 0 1 0 -12.5 0zM1068.75 425 a6.25 6.25 0 1 0 12.5 0 a6.25 6.25 0 1 0 -12.5 0zM518.75 475 a6.25 6.25 0 1 0 12.5 0 a6.25 6.25 0 1 0 -12.5 0zM768.75 375 a6.25 6.25 0 1 0 12.5 0 a6.25 6.25 0 1 0 -12.5 0zM218.75 375 a6.25 6.25 0 1 0 12.5 0 a6.25 6.25 0 1 0 -12.5 0zM1918.75 425 a6.25 6.25 0 1 0 12.5 0 a6.25 6.25 0 1 0 -12.5 0z" fill="black"></path><path d="M1418.75 775 a6.25 6.25 0 1 0 12.5 0 a6.25 6.25 0 1 0 -12.5 0zM768.75 675 a6.25 6.25 0 1 0 12.5 0 a6.25 6.25 0 1 0 -12.5 0zM1268.75 675 a6.25 6.25 0 1 0 12.5 0 a6.25 6.25 0 1 0 -12.5 0zM918.75 725 a6.25 6.25 0 1 0 12.5 0 a6.25 6.25 0 1 0 -12.5 0zM818.75 625 a6.25 6.25 0 1 0 12.5 0 a6.25 6.25 0 1 0 -12.5 0zM568.75 725 a6.25 6.25 0 1 0 12.5 0 a6.25 6.25 0 1 0 -12.5 0zM1568.75 875 a6.25 6.25 0 1 0 12.5 0 a6.25 6.25 0 1 0 -12.5 0zM718.75 775 a6.25 6.25 0 1 0 12.5 0 a6.25 6.25 0 1 0 -12.5 0z" fill="black"></path><path d="M1468.75 425 a6.25 6.25 0 1 0 12.5 0 a6.25 6.25 0 1 0 -12.5 0zM668.75 275 a6.25 6.25 0 1 0 12.5 0 a6.25 6.25 0 1 0 -12.5 0zM418.75 275 a6.25 6.25 0 1 0 12.5 0 a6.25 6.25 0 1 0 -12.5 0zM1368.75 425 a6.25 6.25 0 1 0 12.5 0 a6.25 6.25 0 1 0 -12.5 0zM968.75 275 a6.25 6.25 0 1 0 12.5 0 a6.25 6.25 0 1 0 -12.5 0zM1068.75 375 a6.25 6.25 0 1 0 12.5 0 a6.25 6.25 0 1 0 -12.5 0zM168.75 375 a6.25 6.25 0 1 0 12.5 0 a6.25 6.25 0 1 0 -12.5 0zM818.75 275 a6.25 6.25 0 1 0 12.5 0 a6.25 6.25 0 1 0 -12.5 0z" fill="black"></path><path d="M1068.75 875 a6.25 6.25 0 1 0 12.5 0 a6.25 6.25 0 1 0 -12.5 0zM968.75 925 a6.25 6.25 0 1 0 12.5 0 a6.25 6.25 0 1 0 -12.5 0zM1018.75 825 a6.25 6.25 0 1 0 12.5 0 a6.25 6.25 0 1 0 -12.5 0zM1318.75 925 a6.25 6.25 0 1 0 12.5 0 a6.25 6.25 0 1 0 -12.5 0zM1068.75 775 a6.25 6.25 0 1 0 12.5 0 a6.25 6.25 0 1 0 -12.5 0z" fill="black"></path><path d="M168.75 275 a6.25 6.25 0 1 0 12.5 0 a6.25 6.25 0 1 0 -12.5 0z" fill="black"></path><path d="M818.75 925 a6.25 6.25 0 1 0 12.5 0 a6.25 6.25 0 1 0 -12.5 0zM368.75 875 a6.25 6.25 0 1 0 12.5 0 a6.25 6.25 0 1 0 -12.5 0zM718.75 925 a6.25 6.25 0 1 0 12.5 0 a6.25 6.25 0 1 0 -12.5 0zM318.75 925 a6.25 6.25 0 1 0 12.5 0 a6.25 6.25 0 1 0 -12.5 0zM268.75 925 a6.25 6.25 0 1 0 12.5 0 a6.25 6.25 0 1 0 -12.5 0z" fill="black"></path><path d="M1768.75 325 a6.25 6.25 0 1 0 12.5 0 a6.25 6.25 0 1 0 -12.5 0zM1268.75 275 a6.25 6.25 0 1 0 12.5 0 a6.25 6.25 0 1 0 -12.5 0zM1168.75 125 a6.25 6.25 0 1 0 12.5 0 a6.25 6.25 0 1 0 -12.5 0zM1768.75 375 a6.25 6.25 0 1 0 12.5 0 a6.25 6.25 0 1 0 -12.5 0zM368.75 175 a6.25 6.25 0 1 0 12.5 0 a6.25 6.25 0 1 0 -12.5 0zM1168.75 175 a6.25 6.25 0 1 0 12.5 0 a6.25 6.25 0 1 0 -12.5 0zM768.75 125 a6.25 6.25 0 1 0 12.5 0 a6.25 6.25 0 1 0 -12.5 0zM1468.75 175 a6.25 6.25 0 1 0 12.5 0 a6.25 6.25 0 1 0 -12.5 0zM1068.75 275 a6.25 6.25 0 1 0 12.5 0 a6.25 6.25 0 1 0 -12.5 0zM1618.75 375 a6.25 6.25 0 1 0 12.5 0 a6.25 6.25 0 1 0 -12.5 0z" fill="black"></path></mask></defs></svg>