<svg style="position: absolute;" xmlns="http://www.w3.org/2000/svg" version="1.1" xmlns:xlink="http://www.w3.org/1999/xlink" xmlns:svgjs="http://svgjs.dev/svgjs" width="1440" height="560" preserveAspectRatio="none" viewBox="0 0 1440 560">
      <g mask="url(&quot;#SvgjsMask1020&quot;)" fill="none">
          <rect width="1440" height="560" x="0" y="0" fill="#0e2a47"></rect>
          <path d="M1048.9079967847754 190.3238299136549L1057.3929089175294 94.39389980824204 980.4858769881675 128.63511652513353z" fill="rgba(28, 83, 142, 0.4)" class="triangle-float2"></path>
          <path d="M1447.1818626778595 83.80278842358612L1289.054318827208 50.191741397366 1413.5708156516394 241.93033227423774z" fill="rgba(28, 83, 142, 0.4)" class="triangle-float1"></path>
          <path d="M908.457,533.669C962.691,536.867,1023.467,533.179,1053.468,487.886C1085.83,439.029,1079.602,372.905,1047.36,323.969C1017.909,279.269,961.976,266.726,908.457,267.79C857.196,268.809,804.439,284.907,778.8,329.307C753.158,373.712,762.849,429.073,790.319,472.371C815.793,512.522,860.989,530.87,908.457,533.669" fill="rgba(28, 83, 142, 0.4)" class="triangle-float3"></path>
          <path d="M660.3343627483528 19.168086591107812L581.0924928457381-21.207662789800953 540.7167434648294 58.03420711281369 619.958613367444 98.40995649372245z" fill="rgba(28, 83, 142, 0.4)" class="triangle-float1"></path>
          <path d="M1139.381615030135 525.2462950112908L1221.0970481486631 656.0183241864158 1351.8690773237881 574.3028910678876 1270.15364420526 443.53086189276263z" fill="rgba(28, 83, 142, 0.4)" class="triangle-float2"></path>
          <path d="M330.439,487.753C351.579,488.47,373.204,479.515,383.187,460.867C392.75,443.003,385.253,422.162,374.865,404.764C364.812,387.927,350.044,372.089,330.439,372.528C311.35,372.955,298.556,389.961,289.329,406.678C280.501,422.672,275.283,441.193,283.545,457.487C292.563,475.271,310.51,487.077,330.439,487.753" fill="rgba(28, 83, 142, 0.4)" class="triangle-float1"></path>
          <path d="M1201.5717679854831 241.32906070925645L1094.5689666611481 174.32441140591587 1088.7930182274167 284.5360729712126z" fill="rgba(28, 83, 142, 0.4)" class="triangle-float1"></path>
          <path d="M1366.7273002015475 320.3251507583171L1330.424523394635 214.89423146584377 1190.4295328593812 322.06385632244945z" fill="rgba(28, 83, 142, 0.4)" class="triangle-float1"></path>
          <path d="M856.4084433793768 512.1052253293796L870.4822186196212 612.2453395534553 1013.6555023356125 541.0646195810507z" fill="rgba(28, 83, 142, 0.4)" class="triangle-float1"></path>
          <path d="M182.162,422.95C232.947,421.492,277.831,392.601,303.473,348.74C329.376,304.432,335.915,249.187,309.458,205.208C283.687,162.368,232.11,149.24,182.162,147.087C126.87,144.703,64.197,146.759,34.323,193.347C2.828,242.462,16.566,307.016,48.153,356.072C77.121,401.061,128.676,424.486,182.162,422.95" fill="rgba(28, 83, 142, 0.4)" class="triangle-float2"></path>
          <path d="M333.6232641624025 247.1249065167528L268.85992045790397 130.2887416827805 216.78709932843023 311.8882502212513z" fill="rgba(28, 83, 142, 0.4)" class="triangle-float1"></path>
      </g>
      <defs>
          <mask id="SvgjsMask1020">
              <rect width="1440" height="560" fill="#ffffff"></rect>
          </mask>
          <style>
              @keyframes float1 {
                      0%{transform: translate(0, 0)}
                      50%{transform: translate(-10px, 0)}
                      100%{transform: translate(0, 0)}
                  }
  
                  .triangle-float1 {
                      animation: float1 5s infinite;
                  }
  
                  @keyframes float2 {
                      0%{transform: translate(0, 0)}
                      50%{transform: translate(-5px, -5px)}
                      100%{transform: translate(0, 0)}
                  }
  
                  .triangle-float2 {
                      animation: float2 4s infinite;
                  }
  
                  @keyframes float3 {
                      0%{transform: translate(0, 0)}
                      50%{transform: translate(0, -10px)}
                      100%{transform: translate(0, 0)}
                  }
  
                  .triangle-float3 {
                      animation: float3 6s infinite;
                  }
          </style>
      </defs>
</svg>